<?xml version="1.0" standalone="no"?>
<svg viewBox="0 0 200 200" xmlns="http://www.w3.org/2000/svg">
  <path fill="#F2F4F8" d="M47.9,-67.2C59.2,-57.7,63.4,-39.8,68,-22.8C72.6,-5.7,77.6,10.5,71.4,21.3C65.2,32,48,37.1,34.2,47.3C20.5,57.5,10.2,72.7,-2.2,75.7C-14.6,78.7,-29.1,69.4,-39.5,58.1C-49.9,46.8,-56.1,33.5,-61.7,19.3C-67.4,5.1,-72.5,-10.1,-69.4,-23.5C-66.3,-36.9,-55,-48.5,-42.1,-57.5C-29.1,-66.4,-14.6,-72.7,1.9,-75.2C18.3,-77.8,36.6,-76.7,47.9,-67.2Z" transform="translate(100 100)" />
</svg>
